<?xml version="1.0" encoding="utf-8"?>
<!-- Generator: Adobe Illustrator 24.3.0, SVG Export Plug-In . SVG Version: 6.00 Build 0)  -->
<svg version="1.1" id="Layer_1" xmlns="http://www.w3.org/2000/svg" xmlns:xlink="http://www.w3.org/1999/xlink" x="0px" y="0px"
	 width="625.9px" height="149.4px" viewBox="0 0 625.9 149.4" style="enable-background:new 0 0 625.9 149.4;" xml:space="preserve"
	>
<style type="text/css">
	.st0{fill:none;stroke:#1C6765;stroke-width:8.0541;stroke-miterlimit:10;}
	.st1{fill:#FFFFFF;stroke:#1C6765;stroke-width:8.0541;stroke-miterlimit:10;}
</style>
<path class="st0" d="M10,50.4c50.1,1.1,92.6,33,109.3,77.5c-12,10-27.5,16-44.3,16c-38.3,0-69.3-31-69.3-69.3
	C5.6,66.1,7.2,58,10,50.4z"/>
<path class="st0" d="M99.9,139.3c-7.7,3-16.1,4.6-24.9,4.6c-38.1,0-69-30.7-69.3-68.7C46.8,79.3,81.8,104.3,99.9,139.3z"/>
<path class="st0" d="M74.9,144c-29.4,0-54.5-18.3-64.5-44.2C36.6,106.9,59.2,122.7,74.9,144z"/>
<g>
	<path d="M163.9,121.4v-2.7h8V64h-8v-2.7h30.6V64H186v54.7h10.3c2,0,3.8-0.3,5.3-1c2.6-1.3,4.6-4.1,6-8.6l2.9-9.4h2.9l-0.4,21.7
		H163.9z"/>
	<path d="M241.1,113.3c-0.3,0.9-0.8,1.8-1.3,2.7c-2.7,4.3-6.8,6.4-12.5,6.4c-1.9,0-3.6-0.2-5.1-0.7c-5.2-1.7-7.8-5.5-7.8-11.4
		c0.1-8.7,8.7-13.3,25.8-13.6v-6.5c0-1.9-0.1-3.6-0.4-5c-0.7-3.8-2.6-5.7-5.7-5.7c-0.9,0-1.8,0.2-2.5,0.5c-1.1,0.7-2.1,2.3-2.8,5
		c-0.3,0.9-0.5,1.6-0.6,2c-1,2.8-2.9,4.2-5.8,4.2c-0.7,0-1.3-0.1-1.9-0.3c-2.5-0.7-3.7-2.3-3.7-4.9c0-1.1,0.3-2.2,0.9-3.2
		c2.3-3.9,8-5.9,17.1-5.9c2.3,0,4.5,0.2,6.5,0.7c7.7,1.9,11.6,7.1,11.6,15.4v20.9c0,3.2,0.7,4.9,2.2,5c1.9-0.1,3.1-2.4,3.5-7
		l2.6,0.1c-0.2,2.1-0.5,3.8-0.9,5.1c-1.2,3.5-4.2,5.3-9.1,5.3C245.9,122.1,242.6,119,241.1,113.3z M234.1,117.8
		c2.8-1.1,4.8-3.9,6.1-8.6v-9.7c-3,0.1-5.5,0.5-7.4,1.1c-3.6,1.3-5.4,4.2-5.4,8.6c0.1,5.8,1.8,8.8,5.1,8.9
		C233,118.1,233.5,118,234.1,117.8z"/>
	<path d="M283.4,118.9c0.9,0.1,1.3,1,1.3,2.5h-23.4v-2.6c0.5,0,1,0,1.5-0.1c2.9-0.3,4.3-2,4.3-5.1V80.9h-5.8v-2.6h17.8l0.5,7.8
		c0.6-1.2,1.4-2.4,2.4-3.5c3.4-3.9,7.5-5.8,12.4-5.8c1.7,0,3.4,0.3,5,0.8c5.9,2.1,8.8,7.2,8.8,15.5v25.6h3.3c0.4,0,0.8,0,1.2,0.1
		c0.9,0.1,1.3,1,1.3,2.5h-23.1v-2.6c0.9,0,1.7-0.1,2.4-0.3c1.5-0.5,2.2-2.1,2.2-4.9V91.4c0-0.9-0.1-1.8-0.2-2.7
		c-0.7-4.5-2.9-6.7-6.7-6.7c-1,0-2,0.2-2.9,0.7c-3.4,1.7-5.3,5.1-5.8,10.4l-0.1,25.6h2.5C282.7,118.8,283,118.8,283.4,118.9z"/>
	<path d="M346.8,112c-0.3,0.9-0.7,1.7-1.2,2.5c-3,5.3-7.6,7.9-13.8,7.9c-3.7,0-7.1-1.1-10.2-3.4c-5.4-3.9-8.1-10.1-8.1-18.3
		c0-6.7,1.7-12.2,5.2-16.6c4-4.9,9.2-7.3,15.5-7.3c4.7,0,8.8,1.5,12.2,4.4V58.9h-9.1v-2.6h21.8v62.4h4.6c0.5,0,0.9,0,1.2,0.1
		c0.8,0.2,1.2,1.1,1.2,2.6h-17.9L346.8,112z M327.6,106.4c1.1,7.6,4,11.4,8.7,11.4c1.4,0,2.7-0.4,3.9-1.1c4.2-2.7,6.3-9.1,6.3-19.1
		c0-2.3-0.1-4.4-0.4-6.4c-1.1-7.4-4.1-11.1-8.9-11.1c-1.3,0-2.6,0.3-3.8,1c-4.2,2.5-6.3,8.7-6.3,18.4
		C327.1,102,327.3,104.3,327.6,106.4z"/>
	<path d="M382.1,119.6c4.5,0,7-1.6,7.7-4.8c0.1-0.5,0.1-0.9,0.1-1.3c0-3.4-2.1-6.2-6.4-8.5c-0.9-0.5-2.4-1.2-4.5-2.1
		c-5-2.2-8.3-4.2-9.9-6.1c-1.7-2-2.6-4.4-2.6-7.1c0-5.7,3.1-9.5,9.3-11.5c2.6-0.9,5.5-1.3,8.7-1.3c5.2,0,9.3,0.9,12.2,2.8
		c0-2,0.6-3.1,1.8-3.3c0.3-0.1,0.5-0.1,0.8-0.1v12.5h-3.2c-0.3-6.1-3.6-9.1-9.9-9.2c-4.3,0-6.9,1.4-7.9,4.2c-0.2,0.7-0.3,1.3-0.3,2
		c0,2.9,2,5.3,6,7.3c0.8,0.5,2.1,1.1,4,1.9c5.2,2.3,8.7,4.5,10.4,6.4c2,2.3,3,5,3,8.1c0,5.8-3,9.7-9,11.7c-2.5,0.8-5.2,1.2-8.3,1.2
		c-5.9,0-10.8-1-14.8-3.1c0,1.7-0.4,2.7-1.3,3c-0.4,0.1-0.9,0.1-1.4,0.1v-15.2h3.4C370.1,115.4,374.2,119.5,382.1,119.6z"/>
	<path d="M408.2,83.7c4.4-4.6,10.2-6.9,17.2-6.9c5.2,0,9.6,1,13,3.1c3.5,2.2,5.3,4.8,5.3,7.7c0,0.5-0.1,1.1-0.2,1.6
		c-0.8,2.5-2.9,3.8-6.3,3.8c-1.6,0-2.9-0.3-3.8-1c-1.2-0.9-2-2.8-2.4-5.9c-0.2-1.3-0.4-2.2-0.5-2.7c-0.7-2.7-2.5-4.1-5.4-4.1
		c-1.5,0-2.7,0.3-3.8,0.9c-3.5,2.1-5.3,8.8-5.3,20c0,5.6,0.6,10,1.7,13c1.5,4.1,4.6,6.2,9.2,6.2c1.7,0,3.5-0.3,5.2-0.8
		c4.5-1.4,7.6-4.1,9.5-8.1l2.6,0.7c-0.7,1.7-1.6,3.3-2.9,4.8c-3.7,4.2-9.1,6.3-16,6.3c-4.5,0-8.5-0.8-11.9-2.5
		c-7.4-3.7-11.1-10.4-11.1-20.1C402.3,93.2,404.3,87.9,408.2,83.7z"/>
	<path d="M472.5,113.3c-0.3,0.9-0.8,1.8-1.3,2.7c-2.7,4.3-6.8,6.4-12.5,6.4c-1.9,0-3.6-0.2-5.1-0.7c-5.2-1.7-7.8-5.5-7.8-11.4
		c0.1-8.7,8.7-13.3,25.8-13.6v-6.5c0-1.9-0.1-3.6-0.4-5c-0.7-3.8-2.6-5.7-5.7-5.7c-0.9,0-1.8,0.2-2.5,0.5c-1.1,0.7-2.1,2.3-2.8,5
		c-0.3,0.9-0.5,1.6-0.6,2c-1,2.8-2.9,4.2-5.8,4.2c-0.7,0-1.3-0.1-1.9-0.3c-2.5-0.7-3.7-2.3-3.7-4.9c0-1.1,0.3-2.2,0.9-3.2
		c2.3-3.9,8-5.9,17.1-5.9c2.3,0,4.5,0.2,6.5,0.7c7.7,1.9,11.6,7.1,11.6,15.4v20.9c0,3.2,0.7,4.9,2.2,5c1.9-0.1,3.1-2.4,3.5-7
		l2.6,0.1c-0.2,2.1-0.5,3.8-0.9,5.1c-1.2,3.5-4.2,5.3-9.1,5.3C477.3,122.1,474,119,472.5,113.3z M465.5,117.8
		c2.8-1.1,4.8-3.9,6.1-8.6v-9.7c-3,0.1-5.5,0.5-7.4,1.1c-3.6,1.3-5.4,4.2-5.4,8.6c0.1,5.8,1.8,8.8,5.1,8.9
		C464.4,118.1,464.9,118,465.5,117.8z"/>
	<path d="M513.6,137.8c0.4,0,0.8,0,1.2,0.1c0.9,0.1,1.3,1,1.3,2.5h-26v-2.6c0.9,0,1.7-0.1,2.4-0.2c2.2-0.5,3.3-2.1,3.3-5V80.9h-5.7
		v-2.6h17.7l0.5,9.6c0.7-1.9,1.7-3.6,3-5.2c3.3-3.9,7.7-5.9,13-5.9c3.5,0,6.7,1,9.4,3.1c5.1,3.8,7.6,10,7.6,18.4
		c0,6.5-1.7,12-5,16.4c-4,5.1-9.3,7.6-15.9,7.6c-5.3-0.1-9.3-1.7-11.9-4.6v20H513.6z M513.8,83.9c-3.6,3.5-5.4,9.5-5.4,17.8
		c0,4.5,0.6,8.3,1.8,11.3c1.8,4.4,4.5,6.6,8.1,6.6c6.1-0.1,9.3-6.7,9.3-19.8c0-12-2.9-18.1-8.6-18.2
		C517.1,81.6,515.4,82.4,513.8,83.9z"/>
	<path d="M584.2,114.2c-3.4,5.5-9,8.2-16.8,8.2c-4.4,0-8.4-0.9-11.8-2.7c-7.3-3.8-10.9-10.6-10.9-20.2c0-5.9,1.6-10.9,4.8-14.9
		c4.2-5.1,10.1-7.7,17.6-7.7c4.1,0,7.8,0.7,11.1,2.1c5.8,2.6,8.7,6.7,8.7,12.4c0,1.1-0.2,2.2-0.6,3.1c-1.7,3.7-8,5.4-18.7,5.1
		l-9.2-0.3c0.1,3.9,0.4,7.2,1,10c1.5,6.8,5,10.2,10.3,10.2c1.7,0,3.3-0.3,4.9-0.9c4-1.5,6.9-4.2,8.8-8.3l2.4,0.8
		C585.4,112.1,584.8,113.2,584.2,114.2z M558.3,96.3l6.4,0.3c2.7,0.1,4.7,0,6-0.5c1.9-0.7,2.8-2.7,2.8-5.8
		c-0.1-7.1-2.2-10.8-6.5-10.9C561.7,79.6,558.8,85.3,558.3,96.3z"/>
	<path d="M613.2,118.9c0.9,0.1,1.3,1,1.3,2.5h-28.4v-2.6c0.9,0,1.6-0.1,2.3-0.2c2.3-0.4,3.5-2.1,3.5-5V80.9h-5.8v-2.6h17.5l0.7,9.3
		c0.7-1.9,1.8-3.6,3.2-5.2c3.1-3.3,6.8-4.9,10.9-4.9c0.9,0,1.7,0.1,2.5,0.3c3.3,0.9,4.9,3,4.9,6.3c0,0.9-0.2,1.8-0.6,2.7
		c-1.1,2.5-3,3.8-5.7,3.8c-0.8,0-1.5-0.1-2.2-0.3c-1.4-0.5-2.7-1.9-3.9-4c-0.9-1.5-1.7-2.3-2.4-2.3c-0.4,0-0.8,0.1-1.3,0.3
		c-2.9,1.5-4.6,5.8-5.1,12.8v21.6h7.4C612.5,118.8,612.9,118.8,613.2,118.9z"/>
</g>
<g>
	<path d="M180.5,40.7h-10.2l-2.1,5h-3l8.9-20.1h2.5l9,20.1h-3L180.5,40.7z M179.5,38.4l-4.1-9.6l-4.1,9.6H179.5z"/>
	<path d="M209.8,25.6l-8.9,20.1h-2.5l-8.9-20.1h3l7.1,16.4l7.1-16.4H209.8z"/>
	<path d="M229,40.7h-10.2l-2.1,5h-3l8.9-20.1h2.5l9,20.1h-3L229,40.7z M228,38.4l-4.1-9.6l-4.1,9.6H228z"/>
	<path d="M242.4,25.6h7c3.3,0,5.8,0.9,7.6,2.6c1.8,1.7,2.7,4.2,2.7,7.4c0,3.2-0.9,5.7-2.7,7.4c-1.8,1.8-4.3,2.6-7.6,2.6h-7V25.6z
		 M249.2,43.3c4.9,0,7.4-2.5,7.4-7.6c0-5.1-2.5-7.6-7.4-7.6h-4v15.2H249.2z"/>
	<path d="M282,40.7h-10.2l-2.1,5h-3l8.9-20.1h2.5l9,20.1h-3L282,40.7z M281,38.4l-4.1-9.6l-4.1,9.6H281z"/>
</g>
<path class="st1" d="M139.6,50.4c-50.1,1.1-92.6,33-109.3,77.5c12,10,27.5,16,44.3,16c38.3,0,69.3-31,69.3-69.3
	C144,66.1,142.4,58,139.6,50.4z"/>
<path class="st0" d="M49.7,139.3c7.7,3,16.1,4.6,24.9,4.6c38.1,0,69-30.7,69.3-68.7C102.8,79.3,67.9,104.3,49.7,139.3z"/>
<path class="st0" d="M74.7,144c29.4,0,54.5-18.3,64.5-44.2C113.1,106.9,90.4,122.7,74.7,144z"/>
<circle class="st0" cx="74.6" cy="74.6" r="69.3"/>
</svg>
